<?xml version="1.0" encoding="utf-8"?>
<!-- Generator: Adobe Illustrator 23.0.1, SVG Export Plug-In . SVG Version: 6.00 Build 0)  -->
<svg version="1.1" id="Layer_1" xmlns="http://www.w3.org/2000/svg" xmlns:xlink="http://www.w3.org/1999/xlink" x="0px" y="0px"
	 viewBox="0 0 6800.3 2834.6" style="enable-background:new 0 0 6800.3 2834.6;" xml:space="preserve">
<style type="text/css">
	.st0{fill:#2F2262;}
	.st1{font-family:'Roboto-Black';}
	.st2{font-size:684.8895px;}
	.st3{fill:none;}
	.st4{fill:#FFFFFF;}
	.st5{fill:#E30613;}
	
		.st6{clip-path:url(#SVGID_3_);fill-rule:evenodd;clip-rule:evenodd;fill:#FFFFFF;stroke:#12100B;stroke-width:35.2707;stroke-miterlimit:10;}
	.st7{clip-path:url(#SVGID_3_);fill:#FFFFFF;stroke:#12100B;stroke-width:39.6572;stroke-miterlimit:10;}
	.st8{fill:#12100B;}
</style>
<g>
	<text transform="matrix(1 0 0 1 2824.0601 1613.1406)" class="st0 st1 st2">SpeaKonf</text>
	<g>
		<g>
			<g>
				<g>
					<path class="st0" d="M1703.2,576.3c-462.1,0-836.7,374.6-836.7,836.7s374.6,836.7,836.7,836.7s836.7-374.6,836.7-836.7
						S2165.3,576.3,1703.2,576.3z M1703.2,2047.1c-350.2,0-634.1-283.9-634.1-634.1c0-226.4,118.7-425.1,297.2-537.3
						c-0.2,0.1-0.3,0.2-0.5,0.3c-3.8-21-17.7-108.2-17.7-108.2s63,54.6,80.8,73.3c-0.1,0-0.1,0-0.1,0.1
						c83.1-40,176.2-62.4,274.6-62.4c95.3,0,185.7,21,266.8,58.7c-0.2-0.1-0.4-0.2-0.6-0.3c2.1-5,5.6-10.9,7.9-15.9
						c5.3-11.2,13.6-20.9,22.6-27.7c11.1-8.5,29.3-12.7,41.4-8.1c12.5,4.8,25.3,17.7,27.9,32.2c4.3,23.7-2.8,50.3-12.7,68.4
						c-0.3-0.2-0.6-0.4-1-0.7c169.9,113.8,281.8,307.5,281.8,527.3C2337.3,1763.2,2053.4,2047.1,1703.2,2047.1z"/>
					<path class="st0" d="M1414.2,848.4c-16.5-17.4-32.1-31.6-45.6-40.5c3.9,17.3,7.5,35.1,10.9,53.2c0.4,2.3,0.8,4.3,1,5.9
						c14.3-8.5,29-16.4,44-23.8C1421.1,844.9,1418,846.3,1414.2,848.4z"/>
					<path class="st0" d="M2055,823c-4.2-23.5-27.5-33.8-46.3-19.5c-8.2,6.3-15.3,15.6-19.7,25c-2.3,4.9-4.5,9.9-6.5,15
						c-0.2-0.1-0.5-0.2-0.7-0.4c21.5,10.6,42.4,22.3,62.5,35.1C2053.2,861.5,2058.7,843.6,2055,823z"/>
				</g>
				<path id="SVGID_x5F_1_x5F_" class="st3" d="M920.6,1422.6c0,432.2,350.4,782.6,782.6,782.6s782.6-350.4,782.6-782.6"/>
				<text>				<textPath  xlink:href="#SVGID_x5F_1_x5F_" startOffset="0%">
<tspan  class="st4 st1" style="font-size:162.8257px; letter-spacing:100;">JUG Darmstadt</tspan>				</textPath>
</text>
			</g>
		</g>
		<g>
			<g>
				<g>
					<path d="M1368.5,807.9c56.8,37.3,151.1,170.6,195.9,226.2c55.5,68.8,100.8,122.8,152.2,194.9c17,23.9,34.4,37.5,52.9,14
						c42.7-54.3,54.4-63.2,86.8-126.7c8-15.8,9.9-29.7-0.8-47.4c-8.1-13.4-8.7-32.7-8.7-49.4c0.1-30-7-42.3-35.7-33.9
						c-7.4,2.2-17,5.6-25,5.5c-5.3-8.5-1.2-20,2.7-27.7c19.7-38.1,57.8-42.8,89.9-13.8c6.1,5.5,22.2,9.1,27.1,5.3
						c18.2-14.7,37.1-30.7,49.3-50.2c14.6-23.3,22-51.1,33.9-76.2c4.5-9.4,11.5-18.8,19.7-25c18.7-14.3,42.1-4.1,46.3,19.5
						c5.4,29.9-8.6,54-24.5,77.3c-6,8.8-11.9,17.6-18.3,27.1c31.4,17.7,37.4,32.7,47.7,60.8c0.6,1.6,3.9,5.2,4.8,6.3
						c30.5,34.4-9,59.7-28.5,72.2c-23.2,14.9-41.1,32.3-66.3,43.7c-10.3,4.7-24.8,8.2-34,4.8c-33.6-12.4-39.3,1.7-56.2,20.9
						c-40.9,46.5-57.5,69.2-93.6,124.7c-20.2,31.1-22.6,49.5-7.3,82.3c61.9,132.6,94,271.7,83.8,418.8c-1.7,23.9-7.4,48.1-14.9,71
						c-7,21.4-23.3,40.4-47.1,44.8c-24.3,4.5-41-8.8-54.9-28.6c-19-27.2-37.7-55-59.1-80.3c-38.7-45.7-93.5-57.6-144.8-27.6
						c-40.7,23.8-60.4,48.3-99,75.9c-11.6,8.3-40.2,28.2-53.3,32.7c-39.7,13.8-62,3.2-67.2-42.1c-2.6-22.1-0.4-44.8-0.4-69
						c-5.3,0-12.1,0.7-18.6-0.1c-28.9-3.7-39.7-24.5-26.2-50.6c3.3-6.3,7.7-12.3,12.8-17.2c36.7-35.8,39.7-79.2,26.7-125
						c-12.9-45-12.9-86.5,19.4-124.2c53.3-62.1,60-111.3,69-215.3C1414,1102.5,1398.1,939.9,1368.5,807.9z M1430.3,1311.8
						c-12.2,56.2-24.1,106.5-34,157.3c-12.2,62.7-24.5,125.5-33.6,188.8c-6.4,44.4-9.7,89.6-10.3,134.4c-0.4,30.8,16.1,38,42.1,21.8
						c12.1-7.5,22.5-17.8,33.9-26.5c33.4-25.4,64.8-54.3,100.9-75.2c55.3-32,115.3-23.1,160.4,22.2c25.7,25.8,46.6,56.7,68.9,85.9
						c10.6,13.9,29.1,35.2,47.1,24.8c12.8-7.4,17.9-29,20-44c12.7-91.5,11.9-182.1-12.1-273.1c-29.2-110.5-72.9-214-130.6-311.9
						c-4.1-6.9-18.4-23.8-20.5,14.4c-3.2,57.8-21.9,92.7-76.4,117.2C1494.5,1388.8,1436.5,1324.9,1430.3,1311.8z M1349.9,1552.7
						c6.9-40.5,12.8-74.4,18.6-108.3C1327.1,1471.9,1321.2,1509.4,1349.9,1552.7z"/>
					<path class="st4" d="M1349.9,1552.7c-28.7-43.3-22.8-80.7,18.6-108.3C1362.7,1478.3,1356.9,1512.2,1349.9,1552.7z"/>
				</g>
			</g>
			
				<ellipse transform="matrix(0.9757 -0.2189 0.2189 0.9757 -236.3144 366.4101)" class="st5" cx="1535.5" cy="1249.7" rx="91.6" ry="73"/>
			
				<ellipse transform="matrix(0.894 -0.448 0.448 0.894 -394.575 808.6874)" class="st4" cx="1512.1" cy="1238.4" rx="31.7" ry="25.2"/>
		</g>
		<g>
			<g>
				<defs>
					<circle id="SVGID_2_" cx="1703.2" cy="1413" r="581.2"/>
				</defs>
				<clipPath id="SVGID_3_">
					<use xlink:href="#SVGID_2_"  style="overflow:visible;"/>
				</clipPath>
				<path class="st6" d="M2026.2,1464.2c11.5,0,20.9,9.3,20.9,20.8v41.7c0,11.5-9.3,20.8-20.9,20.8h-41.6v553.8h-410.7v-553.8h-41.6
					c-11.5,0-20.9-9.3-20.9-20.8V1485c0-11.5,9.4-20.8,20.9-20.8H2026.2z"/>
				<line class="st7" x1="1660.8" y1="1537.6" x2="1660.8" y2="2101.3"/>
				<line class="st7" x1="1739.8" y1="1537.6" x2="1739.8" y2="2090.2"/>
				<line class="st7" x1="1818.8" y1="1537.6" x2="1818.8" y2="2101.3"/>
				<line class="st7" x1="1897.7" y1="1537.6" x2="1897.7" y2="2101.3"/>
			</g>
		</g>
		<g>
			<path class="st8" d="M1889,1349.5c30.7,0,55.5-24.9,55.5-55.5c0-30.7-24.8-55.5-55.5-55.5c-30.6,0-55.5,24.9-55.5,55.5
				C1833.5,1324.6,1858.3,1349.5,1889,1349.5z"/>
			<path class="st8" d="M1963.3,1394.9l31.1,24.6l20.1-21l-64.2-84.2c-3.1,9.3-7.9,18-15.3,25.4s-15.5,12.5-24.8,15.6l23.5,17.1
				v80.8h29.6V1394.9z"/>
		</g>
		<g>
			<path class="st3" d="M1804.6,978.2c0.4-0.1,0.9-0.3,1.3-0.4c-4.3,0.4-8.7,0.7-13.1,1c-0.1,0.9-0.2,1.8-0.2,2.6
				C1796.5,980.7,1800.7,979.4,1804.6,978.2z"/>
		</g>
	</g>
</g>
</svg>
