<?xml version="1.0" encoding="utf-8"?>
<!-- Generator: Adobe Illustrator 23.0.1, SVG Export Plug-In . SVG Version: 6.00 Build 0)  -->
<svg version="1.1" id="Ebene_1" xmlns="http://www.w3.org/2000/svg" xmlns:xlink="http://www.w3.org/1999/xlink" x="0px" y="0px"
	 viewBox="0 0 62 62" style="enable-background:new 0 0 62 62;" xml:space="preserve">
<style type="text/css">
	.st0{fill:#FFFFFF;}
</style>
<g>
	<path class="st0" d="M54.8,60L54,56.8c-0.1-0.5-0.7-0.9-1.2-0.7c-0.5,0.1-0.9,0.7-0.7,1.2l0.7,2.8H39.3l0.7-2.8
		c0.1-0.5-0.2-1.1-0.7-1.2c-0.5-0.1-1.1,0.2-1.2,0.7L37.2,60h-4.9l0.6-2.2c0.5-1.8,2-3.2,3.8-3.5l5.4-1.1c0.5,1.6,2,2.8,3.8,2.8
		s3.3-1.2,3.8-2.8l5.4,1.1c1.8,0.4,3.3,1.7,3.8,3.5l0.6,2.2H54.8z M24.8,60L24,56.8c-0.1-0.5-0.7-0.9-1.2-0.7
		c-0.5,0.1-0.9,0.7-0.7,1.2l0.7,2.8H9.3l0.7-2.8c0.1-0.5-0.2-1.1-0.7-1.2c-0.5-0.1-1.1,0.2-1.2,0.7L7.2,60H2.3L3,57.8
		c0.5-1.8,2-3.2,3.8-3.5l5.4-1.1c0.5,1.6,2,2.8,3.8,2.8c1.8,0,3.3-1.2,3.8-2.8l5.4,1.1c1.8,0.4,3.3,1.7,3.8,3.5l0.6,2.2H24.8z
		 M10,44v-4.1c1.8-0.2,3.5-1,4.8-2.4l0.3-0.3l0.1,0.1c2,1.5,4.4,2.4,6.8,2.6v4c0,3.3-2.7,6-6,6C12.7,50,10,47.3,10,44 M7,42
		c0-0.7,0.4-1.4,1-1.7v3.4C7.4,43.4,7,42.7,7,42 M10.2,31c0.2-0.1,0.5-0.2,0.6-0.4c1.1-1.6,2.9-2.6,4.8-2.6c5.2,0,9.4,4.2,9.4,9.4
		v1.2c-0.6-0.3-1.3-0.6-2-0.6c-2.4,0-4.7-0.8-6.6-2.2l-0.8-0.6c-0.4-0.3-1-0.3-1.3,0.1l-0.9,0.9C12.2,37.4,10.7,38,9,38
		c-0.7,0-1.4,0.2-2,0.6v-3.4C7,33.2,8.3,31.4,10.2,31 M24,43.7v-3.4c0.6,0.3,1,1,1,1.7S24.6,43.4,24,43.7 M14,51.7
		c0.6,0.2,1.3,0.3,2,0.3c0.7,0,1.4-0.1,2-0.3V52c0,1.1-0.9,2-2,2c-1.1,0-2-0.9-2-2V51.7z M35,39c0-6.1,4.9-11,11-11s11,4.9,11,11
		s-4.9,11-11,11S35,45.1,35,39 M44,51.8c0.7,0.1,1.3,0.2,2,0.2s1.3-0.1,2-0.2V52c0,1.1-0.9,2-2,2c-1.1,0-2-0.9-2-2V51.8z M62,60.7
		l-1-3.5c-0.7-2.5-2.8-4.4-5.4-4.9l-5.3-1.1c5-1.8,8.7-6.6,8.7-12.2c0-7.2-5.8-13-13-13s-13,5.8-13,13c0,5.7,3.6,10.5,8.7,12.2
		l-5.3,1.1c-2.6,0.5-4.6,2.4-5.4,4.9l0,0.1l0-0.1c-0.7-2.5-2.8-4.4-5.4-4.9L20,51.2V51c0,0,0,0,0-0.1c1.9-1.1,3.2-2.9,3.8-5
		c1.8-0.4,3.2-2,3.2-3.9v-4.6C27,31.1,21.9,26,15.6,26c-2.5,0-4.8,1.2-6.2,3.1C6.8,30,5,32.4,5,35.1V42c0,1.9,1.4,3.6,3.2,3.9
		c0.5,2.1,1.9,3.9,3.8,5c0,0,0,0,0,0.1v0.2l-5.6,1.1c-2.6,0.5-4.6,2.4-5.4,4.9l-1,3.5C0,61,0,61.4,0.2,61.6C0.4,61.9,0.7,62,1,62h30
		h30c0.3,0,0.6-0.1,0.8-0.4C62,61.4,62,61,62,60.7"/>
	<path class="st0" d="M39.1,40H40c0.6,0,1-0.4,1-1s-0.4-1-1-1h-0.9c0.4-3.1,2.9-5.5,5.9-5.9V33c0,0.6,0.4,1,1,1c0.6,0,1-0.4,1-1
		v-0.9c3.1,0.4,5.5,2.9,5.9,5.9H52c-0.6,0-1,0.4-1,1s0.4,1,1,1h0.9c-0.4,3.1-2.9,5.5-5.9,5.9V45c0-0.6-0.4-1-1-1c-0.6,0-1,0.4-1,1
		v0.9C41.9,45.5,39.5,43.1,39.1,40 M55,39c0-5-4-9-9-9s-9,4-9,9s4,9,9,9S55,44,55,39"/>
	<path class="st0" d="M47.2,42.6c0.2,0.3,0.5,0.4,0.8,0.4c0.2,0,0.4-0.1,0.6-0.2c0.5-0.3,0.6-0.9,0.3-1.4L47,38.7V37
		c0-0.6-0.4-1-1-1c-0.6,0-1,0.4-1,1v2c0,0.2,0.1,0.4,0.2,0.6L47.2,42.6z"/>
	<path class="st0" d="M20,11h1.5c0.4,0,0.8-0.3,1-0.7c0.2-0.5,0.4-1,0.6-1.5c0.2-0.4,0.1-0.9-0.2-1.2l-1-1l2.8-2.8l1,1
		C26,5.2,26.5,5.2,26.8,5c0.5-0.3,1-0.5,1.5-0.6c0.4-0.1,0.7-0.5,0.7-1V2h4v1.5c0,0.4,0.3,0.8,0.7,1c0.5,0.2,1,0.4,1.5,0.6
		c0.4,0.2,0.9,0.1,1.2-0.2l1-1l2.8,2.8l-1,1C38.8,8,38.8,8.5,39,8.8c0.3,0.5,0.5,1,0.6,1.5c0.1,0.4,0.5,0.7,1,0.7H42v4h-1.5
		c-0.4,0-0.8,0.3-1,0.7c-0.2,0.5-0.4,1-0.6,1.5c-0.2,0.4-0.1,0.9,0.2,1.2l1,1l-2.8,2.8l-1-1c-0.3-0.3-0.8-0.4-1.2-0.2
		c-0.5,0.3-1,0.5-1.5,0.6c-0.4,0.1-0.7,0.5-0.7,1V24h-4v-1.5c0-0.4-0.3-0.8-0.7-1c-0.5-0.2-1-0.4-1.5-0.6c-0.4-0.2-0.9-0.1-1.2,0.2
		l-1,1l-2.8-2.8l1-1c0.3-0.3,0.4-0.8,0.2-1.2c-0.3-0.5-0.5-1-0.6-1.5c-0.1-0.4-0.5-0.7-1-0.7H20V11z M19,17h1.8
		c0.1,0.1,0.1,0.3,0.2,0.4l-1.2,1.2c-0.2,0.2-0.3,0.4-0.3,0.7s0.1,0.5,0.3,0.7l4.2,4.2c0.4,0.4,1,0.4,1.4,0l1.2-1.2
		c0.1,0.1,0.3,0.1,0.4,0.2V25c0,0.6,0.4,1,1,1h6c0.6,0,1-0.4,1-1v-1.8c0.1-0.1,0.3-0.1,0.4-0.2l1.2,1.2c0.4,0.4,1,0.4,1.4,0l4.2-4.2
		c0.2-0.2,0.3-0.4,0.3-0.7s-0.1-0.5-0.3-0.7l-1.2-1.2c0.1-0.1,0.1-0.3,0.2-0.4H43c0.6,0,1-0.4,1-1v-6c0-0.6-0.4-1-1-1h-1.8
		c-0.1-0.1-0.1-0.3-0.2-0.4l1.2-1.2c0.2-0.2,0.3-0.4,0.3-0.7s-0.1-0.5-0.3-0.7l-4.2-4.2c-0.4-0.4-1-0.4-1.4,0l-1.2,1.2
		c-0.1-0.1-0.3-0.1-0.4-0.2V1c0-0.6-0.4-1-1-1h-6c-0.6,0-1,0.4-1,1v1.8c-0.1,0.1-0.3,0.1-0.4,0.2l-1.2-1.2c-0.4-0.4-1-0.4-1.4,0
		l-4.2,4.2c-0.2,0.2-0.3,0.4-0.3,0.7s0.1,0.5,0.3,0.7l1.2,1.2c-0.1,0.1-0.1,0.3-0.2,0.4H19c-0.6,0-1,0.4-1,1v6
		C18,16.6,18.4,17,19,17"/>
	<path class="st0" d="M31,8c2.8,0,5,2.2,5,5s-2.2,5-5,5s-5-2.2-5-5S28.2,8,31,8 M31,20c3.9,0,7-3.1,7-7s-3.1-7-7-7s-7,3.1-7,7
		S27.1,20,31,20"/>
	<path class="st0" d="M47,12c0.6,0,1,0.4,1,1c0,0.6-0.4,1-1,1c-0.6,0-1-0.4-1-1C46,12.4,46.4,12,47,12"/>
	<path class="st0" d="M51,12c0.6,0,1,0.4,1,1c0,0.6-0.4,1-1,1c-0.6,0-1-0.4-1-1C50,12.4,50.4,12,51,12"/>
	<path class="st0" d="M55,12c0.6,0,1,0.4,1,1c0,0.6-0.4,1-1,1c-0.6,0-1-0.4-1-1C54,12.4,54.4,12,55,12"/>
	<path class="st0" d="M7,12c0.6,0,1,0.4,1,1c0,0.6-0.4,1-1,1s-1-0.4-1-1C6,12.4,6.4,12,7,12"/>
	<path class="st0" d="M11,12c0.6,0,1,0.4,1,1c0,0.6-0.4,1-1,1c-0.6,0-1-0.4-1-1C10,12.4,10.4,12,11,12"/>
	<path class="st0" d="M15,12c0.6,0,1,0.4,1,1c0,0.6-0.4,1-1,1c-0.6,0-1-0.4-1-1C14,12.4,14.4,12,15,12"/>
</g>
</svg>
