<?xml version="1.0" encoding="utf-8"?>
<!-- Generator: Adobe Illustrator 23.0.1, SVG Export Plug-In . SVG Version: 6.00 Build 0)  -->
<svg version="1.1" id="Ebene_1" xmlns="http://www.w3.org/2000/svg" xmlns:xlink="http://www.w3.org/1999/xlink" x="0px" y="0px"
	 viewBox="0 0 51 66" style="enable-background:new 0 0 51 66;" xml:space="preserve">
<g>
	<path d="M20.2,17.9L20.2,17.9c1.6,0,3,0.7,3.9,1.9c0.4,0.6,1.3,0.7,1.9,0.2c0.1-0.1,0.2-0.1,0.2-0.2c0.9-1.2,2.3-1.9,3.9-1.9
		c2.7,0,4.8,2,4.8,4.4c0,0.5-0.1,0.9-0.2,1.4c-0.3,0.7,0.1,1.5,0.8,1.8c0,0,0.1,0,0.1,0c2,0.6,3.3,2.3,3.3,4.2
		c0,0.9-0.3,1.8-0.9,2.6c-0.4,0.5-0.4,1.2,0,1.7c0.6,0.8,0.9,1.7,0.9,2.6c0,1.8-1.2,3.5-3.2,4.2c-0.7,0.2-1.1,1-0.9,1.7
		c0.1,0.4,0.1,0.7,0.2,1.1c0,2.4-2.1,4.4-4.8,4.4c-1.6,0-3-0.7-3.9-1.9c-0.5-0.6-1.3-0.7-1.9-0.2c-0.1,0.1-0.2,0.1-0.2,0.2
		c-0.9,1.2-2.3,1.9-3.9,1.9c-2.7,0-4.8-2-4.8-4.4c0-0.4,0.1-0.9,0.2-1.3c0.2-0.7-0.1-1.4-0.7-1.7c-1.7-0.8-2.6-2.3-2.7-4
		c0-0.9,0.3-1.8,0.9-2.6c0.4-0.5,0.4-1.2,0-1.7c-0.6-0.8-0.9-1.7-0.9-2.6c0,0,0,0,0,0c0-1.7,1-3.3,2.8-4c0.7-0.3,1-1.1,0.7-1.8
		c0,0,0,0,0,0c-0.2-0.5-0.3-1-0.3-1.6C15.4,20,17.5,18,20.2,17.9L20.2,17.9z M20.2,15.2c-4,0-7.4,3.2-7.4,7.2c0,0.6,0.2,1.1,0.3,1.6
		c-2,1.3-3.5,3.3-3.5,5.8c0,1.2,0.4,2.4,1,3.5c-0.6,1.1-1,2.2-1,3.5c0,2.4,1.4,4.4,3.4,5.7c-0.1,0.4-0.2,0.8-0.2,1.2
		c0,4,3.4,7.2,7.4,7.2c1.9,0,3.6-0.8,4.9-2.1c1.4,1.2,3,2.1,4.9,2.1c4,0,7.4-3.2,7.4-7.2c0-0.2-0.1-0.4-0.1-0.7c2.4-1.2,4-3.6,4-6.3
		c0-1.2-0.4-2.4-1-3.5c0.6-1.1,1-2.2,1-3.5c0-2.8-1.7-5.1-4.1-6.3c0.1-0.4,0.2-0.7,0.2-1.1c0-4-3.4-7.2-7.4-7.2
		c-1.9,0-3.6,0.8-4.9,2.1C23.8,16.1,22.1,15.2,20.2,15.2L20.2,15.2z"/>
	<path d="M25.5,24.8c-0.6,0-1.1,0.4-1.3,0.9l-2.6,7.7c-0.2,0.7,0.1,1.5,0.8,1.8c0.3,0.1,0.6,0.1,0.9,0l2.7-1l-1.7,5.2
		c-0.2,0.7,0.1,1.5,0.8,1.7s1.4-0.1,1.7-0.8l2.6-7.9c0.2-0.7-0.1-1.5-0.8-1.7c-0.3-0.1-0.6-0.1-0.9,0l-2.7,1l1.7-5
		c0.3-0.7-0.1-1.5-0.8-1.8C25.8,24.9,25.7,24.8,25.5,24.8"/>
	<path d="M25.5,0.1c-0.6,0-1.2,0.4-1.3,1.1l-1.3,5.4c-0.2,0.7,0.2,1.5,1,1.7c0.3,0.1,0.6,0,0.9-0.1l0.1,0l-0.6,2.7
		c-0.2,0.7,0.3,1.5,1,1.7c0.7,0.2,1.4-0.3,1.6-1c0,0,0,0,0,0l1.3-5.5c0.2-0.7-0.3-1.5-1-1.7c-0.3-0.1-0.6,0-0.9,0.1l-0.1,0l0.6-2.5
		c0.2-0.7-0.2-1.5-0.9-1.7C25.7,0.1,25.6,0.1,25.5,0.1z"/>
	<path d="M1.7,7C1,7,0.4,7.6,0.4,8.4c0,0.5,0.2,0.9,0.6,1.1L3.2,11c-0.7,0.3-1,1.1-0.7,1.8C2.6,13,2.8,13.2,3,13.4l4.6,3
		c0.6,0.4,1.4,0.2,1.8-0.4C9.8,15.3,9.6,14.4,9,14c0,0,0,0,0,0l-2.1-1.4c0.7-0.3,1-1.1,0.7-1.8c-0.1-0.3-0.3-0.5-0.5-0.6L2.4,7.2
		C2.2,7,1.9,7,1.7,7z"/>
	<path d="M8.3,49.5c-0.3,0-0.5,0.1-0.7,0.2l-4.7,3.1c-0.6,0.4-0.8,1.3-0.4,1.9c0.1,0.2,0.3,0.4,0.6,0.5L1,56.6
		c-0.6,0.4-0.8,1.2-0.4,1.9c0.4,0.6,1.2,0.8,1.8,0.4L7,56c0.6-0.4,0.8-1.2,0.4-1.9c-0.1-0.2-0.4-0.4-0.6-0.5L9,52.1
		c0.6-0.4,0.8-1.2,0.4-1.9C9.2,49.8,8.8,49.5,8.3,49.5"/>
	<path d="M25.5,53.7c-0.6,0-1.2,0.4-1.3,1.1l-1.3,5.4c-0.2,0.7,0.2,1.5,1,1.7c0.3,0.1,0.6,0,0.9-0.1l0.1,0l-0.6,2.7
		c-0.2,0.7,0.2,1.5,1,1.7c0.7,0.2,1.4-0.3,1.6-1c0,0,0,0,0,0l1.3-5.5c0.2-0.7-0.3-1.5-1-1.7c-0.3-0.1-0.6,0-0.9,0.1l-0.1,0l0.6-2.5
		c0.2-0.7-0.2-1.5-0.9-1.7C25.7,53.7,25.6,53.7,25.5,53.7z"/>
	<path d="M49.3,7C49,7,48.8,7,48.6,7.2l-4.7,3.1c-0.6,0.4-0.8,1.3-0.4,1.9c0.1,0.2,0.3,0.4,0.6,0.5L42,14c-0.6,0.4-0.8,1.2-0.4,1.9
		c0.4,0.6,1.2,0.8,1.8,0.4c0,0,0,0,0,0l4.6-3c0.6-0.4,0.8-1.2,0.4-1.9c-0.1-0.2-0.4-0.4-0.6-0.5L50,9.5c0.6-0.4,0.8-1.2,0.4-1.9
		C50.2,7.2,49.7,7,49.3,7z"/>
	<path d="M42.6,49.5c-0.7,0-1.3,0.6-1.3,1.4c0,0.5,0.2,0.9,0.6,1.1l2.2,1.5c-0.7,0.3-1,1.1-0.7,1.8c0.1,0.3,0.3,0.5,0.5,0.6l4.6,3
		c0.6,0.4,1.4,0.2,1.8-0.4c0.4-0.6,0.2-1.5-0.4-1.9l-2.1-1.4c0.7-0.3,1-1.1,0.7-1.8c-0.1-0.3-0.3-0.5-0.5-0.6l-4.7-3.1
		C43.2,49.6,42.9,49.5,42.6,49.5z"/>
</g>
</svg>
