<?xml version="1.0" encoding="utf-8"?>
<!-- Generator: Adobe Illustrator 23.0.1, SVG Export Plug-In . SVG Version: 6.00 Build 0)  -->
<svg version="1.1" id="Ebene_1" xmlns="http://www.w3.org/2000/svg" xmlns:xlink="http://www.w3.org/1999/xlink" x="0px" y="0px"
	 viewBox="0 0 72.1 73.2" style="enable-background:new 0 0 72.1 73.2;" xml:space="preserve">
<style type="text/css">
	.st0{fill:#FFFFFF;}
</style>
<g>
	<path class="st0" d="M72.1,64V9.1c0-5-4-9.1-9-9.1H9C4,0,0,4.1,0,9.1V64c0,5,4,9.1,9,9.1h29.5V44.9H29V33.8h9.5v-8.1
		c0-9.5,5.8-14.6,14.2-14.6c4,0,7.5,0.3,8.5,0.4v9.9h-5.8c-4.6,0-5.5,2.2-5.5,5.4v7.1h11l-1.4,11.1H50v28.3h13.1
		C68.1,73.2,72.1,69.1,72.1,64"/>
</g>
</svg>
