<?xml version="1.0" encoding="utf-8"?>
<!-- Generator: Adobe Illustrator 23.0.1, SVG Export Plug-In . SVG Version: 6.00 Build 0)  -->
<svg version="1.1" id="Ebene_1" xmlns="http://www.w3.org/2000/svg" xmlns:xlink="http://www.w3.org/1999/xlink" x="0px" y="0px"
	 viewBox="0 0 58.5 58.5" style="enable-background:new 0 0 58.5 58.5;" xml:space="preserve">
<g>
	<path d="M30.6,1.9c0.5,0,0.9,0.4,0.9,0.9c0,0.5-0.4,0.9-0.9,0.9c-0.5,0-0.9-0.4-0.9-0.9C29.7,2.3,30.1,1.9,30.6,1.9 M30.6,5.6
		c1.5,0,2.7-1.2,2.7-2.7s-1.2-2.7-2.7-2.7c-1.5,0-2.7,1.2-2.7,2.7S29.1,5.6,30.6,5.6"/>
	<path d="M56.6,31.1c0,0.5-0.4,0.9-0.9,0.9c-0.5,0-0.9-0.4-0.9-0.9c0-0.5,0.4-0.9,0.9-0.9C56.2,30.2,56.6,30.6,56.6,31.1 M52.9,31.1
		c0,1.5,1.2,2.7,2.7,2.7s2.7-1.2,2.7-2.7c0-1.5-1.2-2.7-2.7-2.7S52.9,29.6,52.9,31.1"/>
	<path d="M14.1,29.3c0,0.5-0.4,0.9-0.9,0.9c-0.5,0-0.9-0.4-0.9-0.9c0-0.5,0.4-0.9,0.9-0.9C13.7,28.4,14.1,28.8,14.1,29.3 M10.5,29.3
		c0,1.5,1.2,2.7,2.7,2.7s2.7-1.2,2.7-2.7c0-1.5-1.2-2.7-2.7-2.7S10.5,27.8,10.5,29.3"/>
	<path d="M9.6,9.7c0.3,0,0.6-0.2,0.7-0.5l3-6.1l3,6.1c0.1,0.3,0.4,0.5,0.7,0.5l6.7,1l-4.8,4.8c-0.2,0.2-0.3,0.5-0.3,0.8l1.1,6.8
		l-6-3.2c-0.3-0.1-0.6-0.1-0.9,0l-5.9,3.2L8,16.3c0-0.3,0-0.6-0.3-0.8l-4.9-4.8L9.6,9.7z M6.1,16.5l-1.4,8.1c-0.1,0.5,0.3,1,0.7,1.1
		c0.2,0,0.4,0,0.6-0.1l7.2-3.8l7.2,3.8c0.4,0.2,1,0.1,1.2-0.4c0.1-0.2,0.1-0.4,0.1-0.6l-1.4-8.1l5.8-5.7c0.4-0.4,0.4-0.9,0-1.3
		c-0.1-0.1-0.3-0.2-0.5-0.3l-8-1.2l-3.6-7.4c-0.2-0.5-0.8-0.6-1.2-0.4c-0.2,0.1-0.3,0.2-0.4,0.4L8.8,8l-8,1.2
		c-0.5,0.1-0.8,0.5-0.8,1c0,0.2,0.1,0.4,0.3,0.5L6.1,16.5z"/>
	<path d="M12.3,35.7C5.5,35.7,0,41.3,0,48.3c0,5.7,4.5,10.2,10,10.2c4.6-0.1,8.2-3.8,8.2-8.4c0-3.8-3-6.8-6.7-6.9
		c-3.1,0-5.6,2.6-5.6,5.7c0,2.6,2,4.7,4.6,4.7c0.5,0,0.9-0.4,0.9-0.9c0-0.5-0.4-0.9-0.9-0.9c-1.6,0-2.8-1.3-2.8-2.9c0,0,0,0,0,0
		c0-2.1,1.6-3.8,3.7-3.9c2.7,0,4.9,2.3,4.9,5.1c0.1,3.6-2.8,6.5-6.4,6.6c-4.5,0-8.2-3.8-8.2-8.4c0-5.9,4.7-10.7,10.4-10.7
		c7.3,0,13.3,6.1,13.3,13.7c0,0.5,0.4,0.9,0.9,0.9s0.9-0.4,0.9-0.9C27.4,42.6,20.6,35.7,12.3,35.7"/>
	<path d="M37.2,54.8l9.4-16.4l9.4,16.4H37.2z M58.2,55.2L47.3,36.1c-0.3-0.4-0.8-0.6-1.2-0.3c-0.1,0.1-0.3,0.2-0.3,0.3l-11,19.2
		c-0.3,0.4-0.1,1,0.3,1.2c0.1,0.1,0.3,0.1,0.5,0.1h21.9c0.5,0,0.9-0.4,0.9-0.9C58.4,55.6,58.3,55.4,58.2,55.2"/>
	<path d="M46.5,3.7c5.5,0,10,4.5,10,10s-4.5,10-10,10s-10-4.5-10-10S41,3.7,46.5,3.7 M46.5,25.6c6.6,0,11.9-5.3,11.9-11.9
		S53.1,1.9,46.5,1.9S34.7,7.2,34.7,13.8S40,25.6,46.5,25.6"/>
	<path d="M31.9,33.5c1.3,0,2.3,1,2.3,2.3s-1,2.3-2.3,2.3c-1.3,0-2.3-1-2.3-2.3S30.7,33.5,31.9,33.5 M31.9,39.9
		c2.3,0,4.1-1.8,4.1-4.1s-1.8-4.1-4.1-4.1c-2.3,0-4.1,1.8-4.1,4.1S29.7,39.9,31.9,39.9"/>
	<path d="M41.1,14.2c0.5,0,0.9-0.4,0.9-0.9c0-2.5,2-4.6,4.6-4.6c0.5,0,0.9-0.4,0.9-0.9c0-0.5-0.4-0.9-0.9-0.9
		c-3.5,0-6.4,2.9-6.4,6.4C40.2,13.8,40.6,14.2,41.1,14.2"/>
	<path d="M26.5,53.9c0.5,0,0.9,0.4,0.9,0.9c0,0.5-0.4,0.9-0.9,0.9c-0.5,0-0.9-0.4-0.9-0.9C25.6,54.3,26,53.9,26.5,53.9"/>
	<path d="M42.9,49.8c0.5,0,0.9,0.4,0.9,0.9c0,0.5-0.4,0.9-0.9,0.9c-0.5,0-0.9-0.4-0.9-0.9C42,50.2,42.4,49.8,42.9,49.8"/>
	<path d="M42,15.6c0.5,0,0.9,0.4,0.9,0.9s-0.4,0.9-0.9,0.9c-0.5,0-0.9-0.4-0.9-0.9S41.5,15.6,42,15.6"/>
	<path d="M45.7,43.9l-1.8,3.2c-0.3,0.4-0.1,1,0.3,1.2c0.4,0.3,1,0.1,1.2-0.3l1.8-3.2c0.3-0.4,0.1-1-0.3-1.2
		C46.6,43.3,46,43.5,45.7,43.9"/>
</g>
</svg>
