<?xml version="1.0" encoding="utf-8"?>
<!-- Generator: Adobe Illustrator 23.0.1, SVG Export Plug-In . SVG Version: 6.00 Build 0)  -->
<svg version="1.1" id="Ebene_1" xmlns="http://www.w3.org/2000/svg" xmlns:xlink="http://www.w3.org/1999/xlink" x="0px" y="0px"
	 viewBox="0 0 58 58" style="enable-background:new 0 0 58 58;" xml:space="preserve">
<style type="text/css">
	.st0{fill:#FFFFFF;}
</style>
<g>
	<path class="st0" d="M17.2,20.4c1.5-1.5,3.4-2.3,5.5-2.3c1.9,0,3.8,0.7,5.2,2l1.1,1l1.1-1c1.4-1.3,3.3-2,5.2-2c2.1,0,4,0.8,5.5,2.3
		c2.9,2.9,3.1,7.6,0.3,10.7L29,43.3L16.8,31.1C14.1,28,14.2,23.3,17.2,20.4 M14.4,33.4L29,48l14.5-14.6l0.1-0.1
		c3.9-4.4,3.8-11.1-0.4-15.3c-2.1-2.1-4.9-3.3-7.9-3.3c-2.3,0-4.5,0.7-6.3,2c-1.8-1.3-4-2-6.3-2c-3,0-5.8,1.2-7.9,3.3
		C10.6,22.3,10.5,29,14.4,33.4"/>
	<path class="st0" d="M29,8.3c0.6,0,1-0.5,1-1V1.4c0-0.6-0.5-1-1-1c-0.6,0-1,0.5-1,1v5.8C28,7.8,28.4,8.3,29,8.3"/>
	<path class="st0" d="M29,49.7c-0.6,0-1,0.5-1,1v5.8c0,0.6,0.5,1,1,1c0.6,0,1-0.5,1-1v-5.8C30,50.2,29.6,49.7,29,49.7"/>
	<path class="st0" d="M8.3,29c0-0.6-0.5-1-1-1H1.4c-0.6,0-1,0.5-1,1c0,0.6,0.5,1,1,1h5.8C7.8,30,8.3,29.6,8.3,29"/>
	<path class="st0" d="M56.6,28h-5.8c-0.6,0-1,0.5-1,1c0,0.6,0.5,1,1,1h5.8c0.6,0,1-0.5,1-1C57.6,28.4,57.1,28,56.6,28"/>
	<path class="st0" d="M12.9,14.3c0.4,0.4,1.1,0.4,1.5,0c0.4-0.4,0.4-1.1,0-1.5l-4.1-4.1c-0.4-0.4-1.1-0.4-1.5,0
		c-0.4,0.4-0.4,1.1,0,1.5L12.9,14.3z"/>
	<path class="st0" d="M45.1,43.7c-0.4-0.4-1.1-0.4-1.5,0c-0.4,0.4-0.4,1.1,0,1.5l4.1,4.1c0.4,0.4,1.1,0.4,1.5,0
		c0.4-0.4,0.4-1.1,0-1.5L45.1,43.7z"/>
	<path class="st0" d="M12.9,43.7l-4.1,4.1c-0.4,0.4-0.4,1.1,0,1.5c0.4,0.4,1.1,0.4,1.5,0l4.1-4.1c0.4-0.4,0.4-1.1,0-1.5
		C13.9,43.3,13.3,43.3,12.9,43.7"/>
	<path class="st0" d="M45.1,14.3l4.1-4.1c0.4-0.4,0.4-1.1,0-1.5c-0.4-0.4-1.1-0.4-1.5,0l-4.1,4.1c-0.4,0.4-0.4,1.1,0,1.5
		C44.1,14.7,44.7,14.7,45.1,14.3"/>
	<path class="st0" d="M19.8,9.5c0.2,0.5,0.8,0.8,1.4,0.6c0.5-0.2,0.8-0.8,0.6-1.4l-0.8-1.9c-0.2-0.5-0.8-0.8-1.4-0.6
		C19,6.4,18.8,7,19,7.5L19.8,9.5z"/>
	<path class="st0" d="M38.2,48.5C38,48,37.4,47.8,36.9,48c-0.5,0.2-0.8,0.8-0.6,1.4l0.8,1.9c0.2,0.5,0.8,0.8,1.4,0.6
		c0.5-0.2,0.8-0.8,0.6-1.4L38.2,48.5z"/>
	<path class="st0" d="M6.8,20.9l1.9,0.8c0.5,0.2,1.1,0,1.4-0.6c0.2-0.5,0-1.1-0.6-1.4L7.6,19c-0.5-0.2-1.1,0-1.4,0.6
		C6,20.1,6.2,20.7,6.8,20.9"/>
	<path class="st0" d="M51.2,37.1l-1.9-0.8c-0.5-0.2-1.1,0-1.4,0.6c-0.2,0.5,0,1.1,0.6,1.4l1.9,0.8c0.5,0.2,1.1,0,1.4-0.6
		S51.8,37.3,51.2,37.1"/>
	<path class="st0" d="M10,36.9c-0.2-0.5-0.8-0.8-1.4-0.6l-1.9,0.8c-0.5,0.2-0.8,0.8-0.6,1.4C6.4,39,7,39.2,7.6,39l1.9-0.8
		C10,38,10.3,37.4,10,36.9"/>
	<path class="st0" d="M48,21.1c0.2,0.5,0.8,0.8,1.4,0.6l1.9-0.8c0.5-0.2,0.8-0.8,0.6-1.4C51.6,19,51,18.8,50.4,19l-1.9,0.8
		C48,20,47.7,20.6,48,21.1"/>
	<path class="st0" d="M21.1,48c-0.5-0.2-1.1,0-1.4,0.6L19,50.5c-0.2,0.5,0,1.1,0.6,1.4c0.5,0.2,1.1,0,1.4-0.6l0.8-1.9
		C21.9,48.8,21.7,48.2,21.1,48"/>
	<path class="st0" d="M36.9,10c0.5,0.2,1.1,0,1.4-0.6L39,7.5c0.2-0.5,0-1.1-0.6-1.4c-0.5-0.2-1.1,0-1.4,0.6l-0.8,1.9
		C36.1,9.2,36.3,9.8,36.9,10"/>
	<path class="st0" d="M25.3,32.3h1.9v1.9c0,1,0.8,1.9,1.9,1.9c1,0,1.9-0.8,1.9-1.9v-1.9h1.9c1,0,1.9-0.8,1.9-1.9
		c0-1-0.8-1.9-1.9-1.9h-1.9v-1.9c0-1-0.8-1.9-1.9-1.9c-1,0-1.9,0.8-1.9,1.9v1.9h-1.9c-1,0-1.9,0.8-1.9,1.9
		C23.4,31.5,24.2,32.3,25.3,32.3"/>
</g>
</svg>
