<?xml version="1.0" encoding="utf-8"?>
<!-- Generator: Adobe Illustrator 23.0.1, SVG Export Plug-In . SVG Version: 6.00 Build 0)  -->
<svg version="1.1" id="Ebene_1" xmlns="http://www.w3.org/2000/svg" xmlns:xlink="http://www.w3.org/1999/xlink" x="0px" y="0px"
	 viewBox="0 0 72.1 73.2" style="enable-background:new 0 0 72.1 73.2;" xml:space="preserve">
<style type="text/css">
	.st0{fill:#FFFFFF;}
</style>
<g>
	<path class="st0" d="M59.2,58.7c0,1,0,1-1,1c-2.5,0-5.1,0-7.6,0c-1.1,0-1.1,0-1.1-1.1c0-4.9,0-9.8,0-14.7c0-1.3-0.2-2.7-0.5-4
		c-0.5-2.2-2-3.2-4.2-3.2c-3.5-0.1-5.4,1.7-5.7,5.2c-0.1,1.1-0.2,2.2-0.2,3.3c0,4.5,0,9,0,13.6c0,0.8-0.2,0.9-1,0.9
		c-2.7,0-5.3,0-8,0c-0.6,0-0.8-0.2-0.8-0.8c0-9.8,0-19.5,0-29.3c0-0.7,0.3-0.9,0.9-0.9c2.5,0,5.1,0,7.6,0c0.7,0,0.9,0.2,0.9,0.9
		c0,1,0,2.1,0,3.2c2.6-3.7,6-5.1,10.3-4.8c1.7,0.1,3.4,0.4,5,1.2c2.8,1.5,4.3,4,4.8,7c0.4,2.2,0.6,4.5,0.6,6.8
		C59.3,48.3,59.2,53.5,59.2,58.7 M24.2,19.1c0,3.1-2.6,5.7-5.7,5.7c-3.1,0-5.6-2.6-5.6-5.7c0-3.1,2.6-5.7,5.6-5.6
		C21.5,13.5,24.2,16.1,24.2,19.1 M13.6,44.2c0-4.8,0-9.7,0-14.5c0-0.7,0.2-1,0.9-1c2.6,0,5.3,0,7.9,0c0.6,0,0.8,0.2,0.8,0.8
		c0,9.8,0,19.5,0,29.3c0,0.6-0.2,0.8-0.8,0.8c-2.7,0-5.3,0-8,0c-0.7,0-0.9-0.2-0.9-0.9C13.6,54,13.6,49.1,13.6,44.2 M72.1,64V9.1
		c0-5-4-9.1-9-9.1H9C4,0,0,4.1,0,9.1V64c0,5,4,9.1,9,9.1h54.1C68.1,73.2,72.1,69.1,72.1,64"/>
</g>
</svg>
