<?xml version="1.0" encoding="utf-8"?>
<!-- Generator: Adobe Illustrator 23.0.1, SVG Export Plug-In . SVG Version: 6.00 Build 0)  -->
<svg version="1.1" id="Ebene_1" xmlns="http://www.w3.org/2000/svg" xmlns:xlink="http://www.w3.org/1999/xlink" x="0px" y="0px"
	 viewBox="0 0 58 64" style="enable-background:new 0 0 58 64;" xml:space="preserve">
<style type="text/css">
	.st0{fill:#FFFFFF;}
</style>
<g>
	<path class="st0" d="M55.1,14.9v3.2H42.4v2.1h12.7v3.2h-53v-3.2h12.7v-2.1H2.1v-3.2H55.1z M23.6,7c0.9,2.8,3.8,4.3,6.6,3.5
		c1.6-0.5,2.9-1.8,3.4-3.4l10.1,5.8h-31L23.6,7z M28.6,2.1c1.8,0,3.2,1.4,3.2,3.2c0,1.8-1.4,3.2-3.2,3.2c-1.8,0-3.2-1.4-3.2-3.2
		C25.4,3.6,26.8,2.1,28.6,2.1 M55.1,61.9h-53V25.6h53V61.9z M56.2,64c0.6,0,1.1-0.5,1.1-1.1V13.9c0-0.6-0.5-1.1-1.1-1.1H48L33.8,4.7
		c-0.3-2.9-3-5-5.9-4.6c-2.4,0.3-4.3,2.2-4.6,4.6L8.2,12.8H1.1c-0.6,0-1.1,0.5-1.1,1.1v49.1C0,63.5,0.5,64,1.1,64H56.2z"/>
	<path class="st0" d="M31.8,29.9h2.1V32h-2.1V29.9z M30.7,34.1H35c0.6,0,1.1-0.5,1.1-1.1v-4.3c0-0.6-0.5-1.1-1.1-1.1h-4.2
		c-0.6,0-1.1,0.5-1.1,1.1v4.3C29.7,33.7,30.1,34.1,30.7,34.1"/>
	<path class="st0" d="M40.3,29.9h2.1V32h-2.1V29.9z M39.2,34.1h4.2c0.6,0,1.1-0.5,1.1-1.1v-4.3c0-0.6-0.5-1.1-1.1-1.1h-4.2
		c-0.6,0-1.1,0.5-1.1,1.1v4.3C38.1,33.7,38.6,34.1,39.2,34.1"/>
	<path class="st0" d="M48.7,29.9h2.1V32h-2.1V29.9z M47.7,34.1h4.2c0.6,0,1.1-0.5,1.1-1.1v-4.3c0-0.6-0.5-1.1-1.1-1.1h-4.2
		c-0.6,0-1.1,0.5-1.1,1.1v4.3C46.6,33.7,47.1,34.1,47.7,34.1"/>
	<path class="st0" d="M6.4,38.4h2.1v2.1H6.4V38.4z M5.3,42.7h4.2c0.6,0,1.1-0.5,1.1-1.1v-4.3c0-0.6-0.5-1.1-1.1-1.1H5.3
		c-0.6,0-1.1,0.5-1.1,1.1v4.3C4.2,42.2,4.7,42.7,5.3,42.7"/>
	<path class="st0" d="M14.8,38.4H17v2.1h-2.1V38.4z M13.8,42.7H18c0.6,0,1.1-0.5,1.1-1.1v-4.3c0-0.6-0.5-1.1-1.1-1.1h-4.2
		c-0.6,0-1.1,0.5-1.1,1.1v4.3C12.7,42.2,13.2,42.7,13.8,42.7"/>
	<path class="st0" d="M23.3,38.4h2.1v2.1h-2.1V38.4z M22.2,42.7h4.2c0.6,0,1.1-0.5,1.1-1.1v-4.3c0-0.6-0.5-1.1-1.1-1.1h-4.2
		c-0.6,0-1.1,0.5-1.1,1.1v4.3C21.2,42.2,21.7,42.7,22.2,42.7"/>
	<path class="st0" d="M31.8,38.4h2.1v2.1h-2.1V38.4z M30.7,42.7H35c0.6,0,1.1-0.5,1.1-1.1v-4.3c0-0.6-0.5-1.1-1.1-1.1h-4.2
		c-0.6,0-1.1,0.5-1.1,1.1v4.3C29.7,42.2,30.1,42.7,30.7,42.7"/>
	<path class="st0" d="M40.3,38.4h2.1v2.1h-2.1V38.4z M39.2,42.7h4.2c0.6,0,1.1-0.5,1.1-1.1v-4.3c0-0.6-0.5-1.1-1.1-1.1h-4.2
		c-0.6,0-1.1,0.5-1.1,1.1v4.3C38.1,42.2,38.6,42.7,39.2,42.7"/>
	<path class="st0" d="M48.7,38.4h2.1v2.1h-2.1V38.4z M47.7,42.7h4.2c0.6,0,1.1-0.5,1.1-1.1v-4.3c0-0.6-0.5-1.1-1.1-1.1h-4.2
		c-0.6,0-1.1,0.5-1.1,1.1v4.3C46.6,42.2,47.1,42.7,47.7,42.7"/>
	<path class="st0" d="M6.4,46.9h2.1v2.1H6.4V46.9z M5.3,51.2h4.2c0.6,0,1.1-0.5,1.1-1.1v-4.3c0-0.6-0.5-1.1-1.1-1.1H5.3
		c-0.6,0-1.1,0.5-1.1,1.1v4.3C4.2,50.7,4.7,51.2,5.3,51.2"/>
	<path class="st0" d="M14.8,46.9H17v2.1h-2.1V46.9z M13.8,51.2H18c0.6,0,1.1-0.5,1.1-1.1v-4.3c0-0.6-0.5-1.1-1.1-1.1h-4.2
		c-0.6,0-1.1,0.5-1.1,1.1v4.3C12.7,50.7,13.2,51.2,13.8,51.2"/>
	<path class="st0" d="M23.3,46.9h2.1v2.1h-2.1V46.9z M22.2,51.2h4.2c0.6,0,1.1-0.5,1.1-1.1v-4.3c0-0.6-0.5-1.1-1.1-1.1h-4.2
		c-0.6,0-1.1,0.5-1.1,1.1v4.3C21.2,50.7,21.7,51.2,22.2,51.2"/>
	<path class="st0" d="M31.8,46.9h2.1v2.1h-2.1V46.9z M30.7,51.2H35c0.6,0,1.1-0.5,1.1-1.1v-4.3c0-0.6-0.5-1.1-1.1-1.1h-4.2
		c-0.6,0-1.1,0.5-1.1,1.1v4.3C29.7,50.7,30.1,51.2,30.7,51.2"/>
	<path class="st0" d="M40.3,46.9h2.1v2.1h-2.1V46.9z M39.2,51.2h4.2c0.6,0,1.1-0.5,1.1-1.1v-4.3c0-0.6-0.5-1.1-1.1-1.1h-4.2
		c-0.6,0-1.1,0.5-1.1,1.1v4.3C38.1,50.7,38.6,51.2,39.2,51.2"/>
	<path class="st0" d="M48.7,46.9h2.1v2.1h-2.1V46.9z M47.7,51.2h4.2c0.6,0,1.1-0.5,1.1-1.1v-4.3c0-0.6-0.5-1.1-1.1-1.1h-4.2
		c-0.6,0-1.1,0.5-1.1,1.1v4.3C46.6,50.7,47.1,51.2,47.7,51.2"/>
	<path class="st0" d="M6.4,55.5h2.1v2.1H6.4V55.5z M5.3,59.7h4.2c0.6,0,1.1-0.5,1.1-1.1v-4.3c0-0.6-0.5-1.1-1.1-1.1H5.3
		c-0.6,0-1.1,0.5-1.1,1.1v4.3C4.2,59.3,4.7,59.7,5.3,59.7"/>
	<path class="st0" d="M14.8,55.5H17v2.1h-2.1V55.5z M13.8,59.7H18c0.6,0,1.1-0.5,1.1-1.1v-4.3c0-0.6-0.5-1.1-1.1-1.1h-4.2
		c-0.6,0-1.1,0.5-1.1,1.1v4.3C12.7,59.3,13.2,59.7,13.8,59.7"/>
	<path class="st0" d="M23.3,55.5h2.1v2.1h-2.1V55.5z M22.2,59.7h4.2c0.6,0,1.1-0.5,1.1-1.1v-4.3c0-0.6-0.5-1.1-1.1-1.1h-4.2
		c-0.6,0-1.1,0.5-1.1,1.1v4.3C21.2,59.3,21.7,59.7,22.2,59.7"/>
</g>
<rect x="25.4" y="18.1" class="st0" width="2.1" height="2.1"/>
<rect x="21.2" y="18.1" class="st0" width="2.1" height="2.1"/>
<rect x="17" y="18.1" class="st0" width="2.1" height="2.1"/>
<rect x="29.7" y="18.1" class="st0" width="2.1" height="2.1"/>
<rect x="33.9" y="18.1" class="st0" width="2.1" height="2.1"/>
<rect x="38.1" y="18.1" class="st0" width="2.1" height="2.1"/>
<rect x="6.4" y="29.9" class="st0" width="2.1" height="2.1"/>
<rect x="14.8" y="29.9" class="st0" width="2.1" height="2.1"/>
<rect x="23.3" y="29.9" class="st0" width="2.1" height="2.1"/>
<rect x="31.8" y="55.5" class="st0" width="2.1" height="2.1"/>
<rect x="40.3" y="55.5" class="st0" width="2.1" height="2.1"/>
<rect x="48.7" y="55.5" class="st0" width="2.1" height="2.1"/>
</svg>
