<?xml version="1.0" encoding="utf-8"?>
<!-- Generator: Adobe Illustrator 23.0.1, SVG Export Plug-In . SVG Version: 6.00 Build 0)  -->
<svg version="1.1" id="Ebene_1" xmlns="http://www.w3.org/2000/svg" xmlns:xlink="http://www.w3.org/1999/xlink" x="0px" y="0px"
	 viewBox="0 0 72.1 73.2" style="enable-background:new 0 0 72.1 73.2;" xml:space="preserve">
<style type="text/css">
	.st0{fill:#FFFFFF;}
</style>
<g>
	<path class="st0" d="M19,49.5l8.6-8.6L19,35.1V49.5z M56.3,51.7c0,0.8-0.3,1.6-0.9,2.1c-0.5,0.5-1.3,0.9-2.1,0.9H24.8
		c-0.8,0-1.5-0.7-1.5-1.5c0-0.8,0.7-1.5,1.5-1.5H51L38.6,39.3c-0.7-0.7-1.6-1-2.5-1c-1,0-1.9,0.3-2.5,1L19,53.8
		c-0.1,0-0.1,0.1-0.1,0.1c-0.3,0.3-0.7,0.5-1.1,0.5c-0.4,0-0.8-0.2-1.1-0.5c-0.5-0.6-0.9-1.3-0.9-2.1V32.8c0-0.3,0.1-0.7,0.2-1
		c0.1-0.5,0.5-0.8,1-1c0.5-0.1,1-0.1,1.4,0.2l11.4,7.7l1.6-1.6c1.3-1.2,3-1.9,4.7-1.9c1.8,0,3.5,0.7,4.7,1.9l12.5,12.5V35.1L48,38.8
		c-0.3,0.2-0.6,0.3-0.9,0.3c-0.6,0-1-0.3-1.3-0.7c-0.5-0.7-0.3-1.7,0.4-2.1l6.2-4.2l-1.7-1.4L37.6,19.7c-0.8-0.8-2.1-0.8-3,0
		l-11.7,9.8c-0.7,0.6-1.7,0.4-2.2-0.2c-0.5-0.7-0.4-1.7,0.2-2.2l11.7-9.8c2.1-1.7,5-1.7,7,0l15.6,13.1c0.3,0.3,0.5,0.6,0.8,0.9
		c0.2,0.4,0.3,1,0.3,1.4V51.7z M72.1,64V9.1c0-5-4-9.1-9-9.1H9C4,0,0,4.1,0,9.1V64c0,5,4,9.1,9,9.1h54.1
		C68.1,73.2,72.1,69.1,72.1,64"/>
</g>
</svg>
