<?xml version="1.0" encoding="utf-8"?>
<!-- Generator: Adobe Illustrator 23.0.1, SVG Export Plug-In . SVG Version: 6.00 Build 0)  -->
<svg version="1.1" id="Ebene_1" xmlns="http://www.w3.org/2000/svg" xmlns:xlink="http://www.w3.org/1999/xlink" x="0px" y="0px"
	 viewBox="0 0 72.1 73.2" style="enable-background:new 0 0 72.1 73.2;" xml:space="preserve">
<style type="text/css">
	.st0{fill:#FFFFFF;}
</style>
<g>
	<path class="st0" d="M38.7,45.5c4.7-5.1,9.5-10.1,14.2-15.2c0,0,0,0,0,0c-4.2,2.4-8.5,4.7-12.7,7.1c-2.3-2.4-4.6-4.8-6.8-7.2
		c-4.8,5.1-9.5,10.1-14.2,15.2c0,0,0,0,0,0c4.3-2.4,8.6-4.7,12.9-7.1C34.2,40.8,36.4,43.1,38.7,45.5 M62.3,36.3
		c0.2,6.6-2.1,12.3-6.6,17c-3.8,4-8.4,6.5-13.8,7.6c-1.5,0.3-3.1,0.5-4.7,0.6c-2.9,0.1-5.7-0.2-8.5-0.9c-0.1,0-0.3,0-0.4,0
		c-2.8,1.6-5.7,3.1-8.5,4.7c-0.1,0-0.1,0.1-0.3,0.1v-0.3c0-2.9,0-5.9,0-8.8c0-0.2-0.1-0.3-0.2-0.4c-3.1-2.4-5.5-5.2-7.2-8.7
		c-1.1-2.3-1.9-4.7-2.2-7.2C9.2,33.8,10.8,28,14.6,23c3.7-4.8,8.5-7.9,14.3-9.4c2-0.5,3.9-0.8,6-0.9c4.5-0.2,8.9,0.7,13,2.6
		c2.6,1.2,4.9,2.8,6.9,4.8c2.9,2.8,5,6,6.3,9.8C61.8,31.9,62.2,34.1,62.3,36.3 M72.1,64V9.1c0-5-4-9.1-9-9.1H9C4,0,0,4.1,0,9.1V64
		c0,5,4,9.1,9,9.1h54.1C68.1,73.2,72.1,69.1,72.1,64"/>
</g>
</svg>
