<?xml version="1.0" encoding="utf-8"?>
<!-- Generator: Adobe Illustrator 23.0.1, SVG Export Plug-In . SVG Version: 6.00 Build 0)  -->
<svg version="1.1" id="Ebene_1" xmlns="http://www.w3.org/2000/svg" xmlns:xlink="http://www.w3.org/1999/xlink" x="0px" y="0px"
	 viewBox="0 0 56 64" style="enable-background:new 0 0 56 64;" xml:space="preserve">
<g>
	<path d="M27,16C27,16,27,16,27,16c0.3,0,0.6-0.2,0.8-0.4l4-5l-1.6-1.2l-3.3,4.1l-1.2-1.2l-1.4,1.4l2,2C26.5,15.9,26.7,16,27,16"/>
	<path d="M28,7c3.3,0,6,2.7,6,6c0,3.3-2.7,6-6,6s-6-2.7-6-6C22,9.7,24.7,7,28,7 M28,21c4.4,0,8-3.6,8-8s-3.6-8-8-8s-8,3.6-8,8
		S23.6,21,28,21"/>
</g>
<rect x="26" y="25" width="4" height="2"/>
<g>
	<path d="M41.9,26.5c0.1-0.2,0.1-0.4,0.1-0.6V23h3v4.2c0,0.9,0.6,1.7,1.5,1.9l2.2,0.5L48.3,31h-7.9L41.9,26.5z M40.4,33h7.9
		c0.9,0,1.6-0.5,1.9-1.4l0.4-1.3c0.2-0.5,0.1-1.1-0.1-1.6c-0.3-0.5-0.7-0.8-1.3-1L47,27.2V23c0-1.1-0.9-2-2-2h-3c-1.1,0-2,0.9-2,2
		v2.8l-1.5,4.5c-0.2,0.6-0.1,1.3,0.3,1.8C39.1,32.7,39.7,33,40.4,33"/>
	<path d="M21,61v-6c0-1.1-0.9-2-2-2h-1.6L13,49.5v-2.1l5.4-5.4c0.4-0.4,0.6-0.9,0.6-1.4V38c0-1.1-0.9-2-2-2H9v-3.3
		c0-0.9-0.6-1.7-1.4-1.9l-4.7-1.4C4.6,22.7,8.9,17,15,13.5c0,0.1,0,0.3,0,0.4c0,0.2,0,0.4,0.1,0.6c0,0.2,0.1,0.5,0.1,0.7
		c0,0.2,0.1,0.4,0.1,0.6c0.1,0.3,0.1,0.5,0.2,0.8c0.1,0.2,0.1,0.4,0.2,0.7c0.1,0.3,0.2,0.6,0.3,0.9c0.1,0.2,0.2,0.5,0.3,0.7
		c0.1,0.3,0.3,0.6,0.4,0.9c0.1,0.2,0.2,0.5,0.3,0.7c0.2,0.3,0.3,0.7,0.5,1c0.1,0.2,0.2,0.5,0.4,0.7c0.2,0.4,0.4,0.7,0.6,1.1
		c0.1,0.2,0.2,0.4,0.3,0.6c0.3,0.6,0.7,1.1,1.1,1.7c0.8,1.2,5.1,7.5,8,7.5s7.1-6.2,8-7.5c0.4-0.6,0.8-1.1,1.1-1.7
		c0.1-0.2,0.2-0.4,0.3-0.6c0.2-0.4,0.4-0.7,0.6-1.1c0.1-0.2,0.2-0.5,0.4-0.7c0.2-0.3,0.3-0.7,0.5-1c0.1-0.2,0.2-0.5,0.3-0.7
		c0.1-0.3,0.3-0.6,0.4-0.9c0.1-0.2,0.2-0.5,0.3-0.7c0.1-0.3,0.2-0.6,0.3-0.9c0.1-0.2,0.1-0.4,0.2-0.7c0.1-0.3,0.2-0.5,0.2-0.8
		c0.1-0.2,0.1-0.4,0.1-0.6c0.1-0.2,0.1-0.5,0.1-0.7c0-0.2,0-0.4,0.1-0.6c0-0.1,0-0.3,0-0.4c8.1,4.6,13,13.1,13,22.5
		c0,1.9-0.2,3.7-0.6,5.5L51,41.9V40c0-1.1-0.9-2-2-2h-6.1c-1,0-1.9,0.8-2,1.8L40.1,46H33c-1.1,0-2,0.9-2,2v3c0,0.2,0.1,0.4,0.2,0.6
		l3.3,4.1l-4,2.4c-0.5,0.3-0.6,0.9-0.4,1.4l1.3,2.3C30.3,61.9,29.2,62,28,62C25.6,62,23.2,61.7,21,61 M8,38h9v2.6l-5.7,5.7
		C11.1,46.5,11,46.7,11,47v3c0,0.3,0.1,0.6,0.4,0.8l5,4c0.2,0.1,0.4,0.2,0.6,0.2h2v5.4c-0.2-0.1-0.3-0.1-0.5-0.2
		c-0.3-0.1-0.6-0.2-0.9-0.4C10.5,56.7,5,50.4,2.9,42.8c0-0.1-0.1-0.2-0.1-0.3c-0.1-0.3-0.1-0.6-0.2-0.9c-0.1-0.3-0.1-0.7-0.2-1
		c0-0.2-0.1-0.4-0.1-0.6c-0.1-0.5-0.1-1.1-0.2-1.6c0-0.2,0-0.3,0-0.5C2,37.2,2,36.6,2,36c0-0.7,0-1.4,0.1-2.1c0-0.2,0-0.3,0-0.5
		c0.1-0.6,0.1-1.3,0.3-1.9c0,0,0-0.1,0-0.1L7,32.7V37C7,37.6,7.4,38,8,38 M28,2c6.1,0,11,4.9,11,11c0,6.7-9.1,18-11,18
		S17,19.7,17,13C17,6.9,21.9,2,28,2 M52.3,45.1c-0.1,0.1-0.1,0.3-0.2,0.4c-0.1,0.3-0.3,0.7-0.4,1c-0.1,0.2-0.2,0.4-0.2,0.5
		c-0.2,0.3-0.3,0.6-0.5,1c-0.2,0.3-0.3,0.6-0.5,0.9c-0.1,0.2-0.3,0.5-0.4,0.7c-0.1,0.2-0.3,0.5-0.5,0.7c-0.1,0.2-0.2,0.3-0.3,0.5
		c-0.2,0.3-0.4,0.5-0.5,0.8c0,0,0,0,0,0c-0.4,0.6-0.9,1.2-1.4,1.7c-0.1,0.1-0.2,0.2-0.3,0.3c-0.2,0.2-0.5,0.5-0.7,0.7
		c-0.1,0.1-0.2,0.2-0.3,0.3c-0.8,0.7-1.6,1.4-2.4,2.1c-0.1,0.1-0.3,0.2-0.4,0.3c-0.2,0.2-0.5,0.3-0.7,0.5c-0.2,0.1-0.4,0.3-0.6,0.4
		c-0.3,0.2-0.6,0.4-0.9,0.6c-0.3,0.2-0.6,0.3-0.9,0.5c-0.2,0.1-0.4,0.2-0.5,0.3c-0.3,0.2-0.6,0.3-0.9,0.4c-0.2,0.1-0.3,0.1-0.5,0.2
		c-0.5,0.2-1,0.4-1.4,0.6c0,0,0,0,0,0c-0.5,0.2-1,0.3-1.5,0.5c-0.1,0-0.2,0.1-0.3,0.1c-0.5,0.1-1,0.3-1.5,0.4c0,0,0,0,0,0l-1.2-2.1
		l4.2-2.5c0.2-0.1,0.4-0.4,0.5-0.7c0.1-0.3,0-0.6-0.2-0.8L33,50.6V48h8c0.5,0,0.9-0.4,1-0.9l0.9-7.1H49v3c0,0.3,0.1,0.6,0.3,0.8
		c0.2,0.2,0.5,0.3,0.8,0.2l2.7-0.4c0,0,0,0,0,0C52.7,44.1,52.5,44.6,52.3,45.1 M49.7,53.7c0.2-0.2,0.4-0.5,0.6-0.8
		c0.2-0.2,0.3-0.4,0.5-0.6c0.2-0.3,0.4-0.6,0.6-0.9c0.2-0.3,0.4-0.7,0.6-1c0.1-0.2,0.3-0.4,0.4-0.7c0.2-0.3,0.4-0.6,0.5-1
		c0.1-0.2,0.2-0.4,0.3-0.5c0.2-0.5,0.5-1,0.7-1.5c0.1-0.1,0.1-0.3,0.2-0.4c0.2-0.5,0.4-0.9,0.5-1.4c0-0.1,0.1-0.2,0.1-0.3
		c0.2-0.6,0.4-1.2,0.5-1.8c0,0,0,0,0-0.1c0,0,0,0,0,0c0.5-2.1,0.8-4.3,0.8-6.6c0-10.6-5.8-20-15.1-24.9C39.9,4.9,34.5,0,28,0
		S16.1,4.9,15.1,11.1C7.3,15.2,2,22.5,0.5,31c0,0.2-0.1,0.4-0.1,0.6c0,0.3-0.1,0.6-0.1,0.9c0,0.3-0.1,0.6-0.1,1c0,0.2,0,0.5-0.1,0.7
		C0,34.8,0,35.4,0,36c0,0.7,0,1.4,0.1,2c0,0.2,0,0.3,0,0.5c0.1,0.6,0.1,1.2,0.2,1.8c0,0.2,0.1,0.4,0.1,0.7c0.1,0.4,0.1,0.8,0.2,1.1
		c0.2,0.7,0.3,1.4,0.6,2.1c0,0,0,0,0,0.1c2.1,7,6.9,12.8,13.4,16.3c0,0,0,0,0,0c0.5,0.3,0.9,0.5,1.4,0.7c0.4,0.2,0.7,0.3,1.1,0.5
		c0.2,0.1,0.5,0.2,0.7,0.3c0.5,0.2,1,0.4,1.6,0.6c0.1,0,0.1,0,0.2,0.1c0,0,0,0,0,0c2.6,0.8,5.4,1.2,8.3,1.2c1.8,0,3.5-0.2,5.2-0.5
		c0,0,0,0,0,0c0,0,0,0,0,0c1.3-0.2,2.5-0.6,3.7-1c0.1,0,0.2-0.1,0.3-0.1c0.6-0.2,1.1-0.4,1.7-0.7c0.1,0,0.1-0.1,0.2-0.1
		c0.5-0.2,0.9-0.4,1.4-0.6c0.2-0.1,0.4-0.2,0.5-0.3c0.4-0.2,0.8-0.4,1.2-0.7c0.2-0.1,0.5-0.3,0.7-0.5c0.3-0.2,0.6-0.4,0.9-0.6
		c0.2-0.2,0.5-0.3,0.7-0.5c0.2-0.2,0.5-0.3,0.7-0.5c0.4-0.3,0.8-0.6,1.1-0.9c0.2-0.2,0.4-0.3,0.6-0.5c0.2-0.2,0.5-0.4,0.7-0.7
		c0.2-0.2,0.3-0.3,0.5-0.5c0.4-0.4,0.8-0.8,1.1-1.2C49.4,54.1,49.5,53.9,49.7,53.7"/>
	<path d="M27.8,42.6L26,41.5v-2.1l3.4,1.1L27.8,42.6z M31.3,39.9c-0.2-0.6-0.7-1.1-1.3-1.3l-3.4-1.1c-0.6-0.2-1.3-0.1-1.8,0.3
		c-0.5,0.4-0.8,1-0.8,1.6v2.1c0,0.7,0.3,1.3,0.9,1.7l1.8,1.2c0.3,0.2,0.7,0.3,1.1,0.3c0.6,0,1.2-0.3,1.6-0.8l1.6-2.1
		C31.4,41.2,31.5,40.5,31.3,39.9"/>
	<path d="M13.3,27.9l-2.1-2.1l1-2l3,3.6L13.3,27.9z M13.7,22.5c-0.4-0.5-1.1-0.8-1.8-0.7c-0.7,0.1-1.3,0.5-1.6,1.1l-1,2
		c-0.4,0.8-0.2,1.7,0.4,2.3l2.1,2.1c0.4,0.4,0.9,0.6,1.4,0.6c0.2,0,0.3,0,0.5-0.1l1.9-0.5c0.7-0.2,1.2-0.7,1.4-1.3
		c0.2-0.7,0.1-1.4-0.4-1.9L13.7,22.5z"/>
</g>
</svg>
