<?xml version="1.0" encoding="utf-8"?>
<!-- Generator: Adobe Illustrator 23.0.1, SVG Export Plug-In . SVG Version: 6.00 Build 0)  -->
<svg version="1.1" id="Ebene_1" xmlns="http://www.w3.org/2000/svg" xmlns:xlink="http://www.w3.org/1999/xlink" x="0px" y="0px"
	 viewBox="0 0 44 47" style="enable-background:new 0 0 44 47;" xml:space="preserve">
<style type="text/css">
	.st0{fill:#FFFFFF;}
	.st1{fill:none;stroke:#2E2362;stroke-width:0.4;stroke-miterlimit:10;}
</style>
<g>
	<path class="st0" d="M3.5,18.9c0-2.6,2.1-4.6,4.6-4.6h1.5v18.5H8c-2.5,0-4.6-2.1-4.6-4.6V18.9z M32.5,42.7l-3.1-1.4V15.8
		c0-0.9-0.7-1.5-1.5-1.5c-0.8,0-1.5,0.7-1.5,1.5v24l-13.8-6.5V13.7l13.8-6.5v2.4c0,0.9,0.7,1.5,1.5,1.5c0.8,0,1.5-0.7,1.5-1.5V5.8
		l3.1-1.4V42.7z M8,35.8h2.7l22.6,10.6c0.8,0.4,1.7,0,2-0.7c0.1-0.2,0.1-0.4,0.1-0.7V38l3.5,3.5c0.6,0.6,1.6,0.6,2.2,0
		c0.6-0.6,0.6-1.5,0-2.1l-5.7-5.7V25h6.1c0.8,0,1.5-0.7,1.5-1.5c0-0.9-0.7-1.5-1.5-1.5h-6.1v-8.6l5.7-5.7c0.6-0.6,0.6-1.6,0-2.2
		c-0.6-0.6-1.6-0.6-2.2,0c0,0,0,0,0,0L35.6,9V1.9c0-0.9-0.7-1.5-1.5-1.5c-0.2,0-0.4,0.1-0.6,0.1L10.8,11.2H8c-4.2,0-7.6,3.5-7.6,7.7
		v9.2C0.4,32.4,3.8,35.8,8,35.8"/>
	<path class="st1" d="M3.5,18.9c0-2.6,2.1-4.6,4.6-4.6h1.5v18.5H8c-2.5,0-4.6-2.1-4.6-4.6V18.9z M32.5,42.7l-3.1-1.4V15.8
		c0-0.9-0.7-1.5-1.5-1.5c-0.8,0-1.5,0.7-1.5,1.5v24l-13.8-6.5V13.7l13.8-6.5v2.4c0,0.9,0.7,1.5,1.5,1.5c0.8,0,1.5-0.7,1.5-1.5V5.8
		l3.1-1.4V42.7z M8,35.8h2.7l22.6,10.6c0.8,0.4,1.7,0,2-0.7c0.1-0.2,0.1-0.4,0.1-0.7V38l3.5,3.5c0.6,0.6,1.6,0.6,2.2,0
		c0.6-0.6,0.6-1.5,0-2.1l-5.7-5.7V25h6.1c0.8,0,1.5-0.7,1.5-1.5c0-0.9-0.7-1.5-1.5-1.5h-6.1v-8.6l5.7-5.7c0.6-0.6,0.6-1.6,0-2.2
		c-0.6-0.6-1.6-0.6-2.2,0c0,0,0,0,0,0L35.6,9V1.9c0-0.9-0.7-1.5-1.5-1.5c-0.2,0-0.4,0.1-0.6,0.1L10.8,11.2H8c-4.2,0-7.6,3.5-7.6,7.7
		v9.2C0.4,32.4,3.8,35.8,8,35.8z"/>
</g>
</svg>
