<?xml version="1.0" encoding="utf-8"?>
<!-- Generator: Adobe Illustrator 23.0.1, SVG Export Plug-In . SVG Version: 6.00 Build 0)  -->
<svg version="1.1" id="Ebene_1" xmlns="http://www.w3.org/2000/svg" xmlns:xlink="http://www.w3.org/1999/xlink" x="0px" y="0px"
	 viewBox="0 0 72.1 73.2" style="enable-background:new 0 0 72.1 73.2;" xml:space="preserve">
<style type="text/css">
	.st0{fill:#FFFFFF;}
</style>
<g>
	<path class="st0" d="M27.7,55.2c17,0,26.3-14.3,26.3-26.7c0-0.4,0-0.8,0-1.2c1.8-1.3,3.4-3,4.6-4.9c-1.7,0.8-3.4,1.2-5.3,1.5
		c1.9-1.2,3.4-3,4.1-5.2c-1.8,1.1-3.8,1.8-5.9,2.3c-1.7-1.8-4.1-3-6.7-3c-5.1,0-9.2,4.2-9.2,9.4c0,0.7,0.1,1.4,0.2,2.1
		c-7.7-0.4-14.5-4.1-19.1-9.8c-0.8,1.4-1.2,3-1.2,4.7c0,3.3,1.6,6.1,4.1,7.8c-1.5-0.1-2.9-0.5-4.2-1.2v0.1c0,4.5,3.2,8.3,7.4,9.2
		c-0.8,0.2-1.6,0.3-2.4,0.3c-0.6,0-1.2-0.1-1.7-0.2c1.2,3.7,4.6,6.4,8.6,6.5c-3.2,2.5-7.2,4-11.5,4c-0.7,0-1.5,0-2.2-0.1
		C17.6,53.6,22.5,55.2,27.7,55.2 M63.1,73.2H9c-5,0-9-4.1-9-9.1V9.1C0,4.1,4,0,9,0h54.1c5,0,9,4.1,9,9.1V64
		C72.1,69.1,68.1,73.2,63.1,73.2"/>
</g>
</svg>
