<?xml version="1.0" encoding="utf-8"?>
<!-- Generator: Adobe Illustrator 23.0.1, SVG Export Plug-In . SVG Version: 6.00 Build 0)  -->
<svg version="1.1" id="Ebene_1" xmlns="http://www.w3.org/2000/svg" xmlns:xlink="http://www.w3.org/1999/xlink" x="0px" y="0px"
	 viewBox="0 0 50.5 50" style="enable-background:new 0 0 50.5 50;" xml:space="preserve">
<style type="text/css">
	.st0{fill:#FFFFFF;}
</style>
<g>
	<path class="st0" d="M47,48.4H26.9V22.8c0-1.4,1.1-2.5,2.5-2.5H47V48.4z M5.2,20.3h17.6c1.4,0,2.5,1.1,2.5,2.5v25.6H5.2V20.3z
		 M17.7,12.1c-3.2,0-5.9-2.6-5.9-5.8V3.8h7.5c2.9,0,5.4,2.1,5.8,5h-5.8v1.6h5.9v1.7H17.7z M32.8,2.2h7.5v2.5c0,3.2-2.6,5.8-5.9,5.8
		h-7.5V8.8h5.9V7.1H27C27.4,4.3,29.9,2.2,32.8,2.2 M47.9,18.7H29.5c-0.9,0-1.8,0.3-2.5,0.8v-7.4h7.5c4.2,0,7.5-3.3,7.5-7.4V1.3
		c0-0.5-0.4-0.8-0.8-0.8h-8.4c-3.2,0-6.1,2-7.1,5c-1.4-2.1-3.8-3.3-6.3-3.3H11c-0.5,0-0.8,0.4-0.8,0.8v3.3c0,4.1,3.4,7.4,7.5,7.4
		h7.5v5.8c-0.7-0.5-1.6-0.8-2.5-0.8H4.3c-0.5,0-0.8,0.4-0.8,0.8v29.7c0,0.5,0.4,0.8,0.8,0.8h43.5c0.5,0,0.8-0.4,0.8-0.8V19.5
		C48.7,19,48.3,18.7,47.9,18.7"/>
</g>
<rect x="1" y="20.3" class="st0" width="1.7" height="29.7"/>
<rect x="48.5" y="19.3" class="st0" width="1.7" height="29.7"/>
<rect x="6.9" y="23.6" class="st0" width="3.3" height="1.6"/>
<rect x="11.9" y="23.6" class="st0" width="10" height="1.6"/>
<rect x="5.9" y="27.5" class="st0" width="15.1" height="1.6"/>
<rect x="5.9" y="32.5" class="st0" width="15.1" height="1.6"/>
<rect x="5.9" y="37.5" class="st0" width="15.1" height="1.6"/>
<rect x="5.9" y="42.4" class="st0" width="15.1" height="1.7"/>
<rect x="29.3" y="32.5" class="st0" width="15.1" height="1.6"/>
<rect x="29.3" y="37.5" class="st0" width="15.1" height="1.6"/>
<rect x="29.3" y="42.4" class="st0" width="15.1" height="1.7"/>
<g>
	<path class="st0" d="M29.3,24.3h5v3.3h-5V24.3z M27.6,23.4v5c0,0.5,0.4,0.8,0.8,0.8h6.7c0.5,0,0.8-0.4,0.8-0.8v-5
		c0-0.5-0.4-0.8-0.8-0.8h-6.7C28,22.6,27.6,23,27.6,23.4"/>
</g>
<rect x="37.7" y="22.6" class="st0" width="5" height="1.6"/>
<rect x="37.7" y="27.5" class="st0" width="5" height="1.6"/>
</svg>
